<!DOCTYPE svg PUBLIC "-//W3C//DTD SVG 20010904//EN" "http://www.w3.org/TR/2001/REC-SVG-20010904/DTD/svg10.dtd">
<svg version="1.0" xmlns="http://www.w3.org/2000/svg" width="423px" height="423px" viewBox="0 0 4230 4230" preserveAspectRatio="xMidYMid meet">
<g id="layer101" fill="#A4161A" stroke="none">
 <path d="M1880 4086 c-216 -124 -449 -262 -458 -270 -3 -4 339 -645 355 -665 2 -3 11 4 22 15 16 17 390 473 612 746 l79 98 -83 47 c-45 26 -87 47 -93 45 -6 -1 -19 7 -29 18 -10 11 -22 20 -26 20 -4 0 -34 16 -66 35 -32 19 -67 35 -78 35 -11 0 -117 -56 -235 -124z"/>
 <path d="M2495 3917 c-27 -33 -193 -234 -367 -446 l-316 -385 23 -45 c39 -78 811 -1490 819 -1498 1 -1 35 48 76 109 41 61 80 116 85 122 6 6 159 227 340 491 459 671 415 612 435 585 15 -19 18 -20 29 -6 8 9 11 26 7 41 -7 28 -24 33 -32 10 -4 -8 -11 -15 -18 -15 -6 0 -89 143 -184 318 -95 174 -185 338 -200 364 -26 45 -43 57 -321 218 -162 94 -302 176 -310 184 -14 11 -23 5 -66 -47z"/>
 <path d="M1200 3689 c-85 -50 -219 -128 -297 -174 l-142 -82 43 -94 c99 -215 168 -361 224 -479 33 -69 89 -187 124 -262 l65 -137 30 32 c72 77 483 588 483 601 0 9 -346 646 -363 669 -11 15 -30 6 -167 -74z"/>
 <path d="M3280 3540 c0 -13 322 -600 329 -600 3 0 16 15 27 33 12 17 58 84 102 148 l79 116 -56 28 c-56 28 -299 170 -418 245 -35 22 -63 36 -63 30z"/>
 <path d="M620 3348 c-47 -27 -136 -79 -197 -115 l-113 -65 0 -906 0 -907 35 40 c20 22 53 63 74 90 22 28 70 87 108 132 65 79 321 391 531 647 53 65 100 124 105 131 4 8 -84 207 -224 507 -127 271 -232 494 -233 495 -1 1 -40 -21 -86 -49z"/>
 <path d="M3754 3033 c-55 -82 -100 -153 -102 -160 -2 -6 37 -85 86 -175 49 -90 104 -193 123 -230 73 -144 69 -162 69 288 l0 401 -25 11 c-14 7 -32 12 -39 12 -7 0 -58 -66 -112 -147z"/>
 <path d="M1761 3112 c-13 -25 -14 -33 -2 -51 8 -12 12 -12 25 -2 20 16 20 31 2 56 -13 18 -14 18 -25 -3z"/>
 <path d="M1593 2818 c-93 -112 -209 -251 -257 -310 -49 -60 -92 -108 -96 -108 -4 0 -10 10 -14 23 l-5 22 -21 -21 c-18 -18 -19 -24 -9 -47 l12 -27 19 22 c10 12 20 19 23 17 2 -3 123 -259 269 -569 145 -311 286 -608 311 -660 26 -52 55 -115 65 -140 10 -25 51 -114 92 -199 l73 -153 61 88 c321 465 487 711 488 724 1 17 -825 1540 -836 1540 -3 0 -82 -91 -175 -202z"/>
 <path d="M3562 2752 c-23 -31 -228 -329 -456 -662 -311 -453 -414 -610 -409 -625 9 -31 427 -797 460 -844 5 -7 121 57 353 194 113 67 214 126 225 132 11 7 59 35 108 64 l87 52 0 574 0 575 -161 296 c-89 164 -163 298 -164 299 -1 2 -20 -23 -43 -55z"/>
 <path d="M1065 2172 c-149 -179 -393 -477 -607 -740 l-148 -181 0 -89 c0 -72 3 -92 18 -104 9 -8 224 -135 477 -283 516 -301 633 -370 720 -424 79 -49 211 -121 223 -121 5 0 30 30 55 68 26 37 82 119 127 182 44 63 80 120 80 125 0 14 -803 1725 -809 1725 -3 0 -64 -71 -136 -158z"/>
 <path d="M2637 1499 c-12 -17 -13 -25 -4 -40 15 -24 19 -24 35 1 10 17 10 24 -2 41 l-14 20 -15 -22z"/>
 <path d="M2374 1018 c-148 -215 -273 -398 -277 -405 -6 -9 21 -78 76 -196 47 -100 94 -203 106 -230 28 -66 51 -64 187 19 60 36 222 131 359 211 138 80 256 151 263 157 10 10 -33 95 -208 416 -122 223 -224 408 -229 413 -4 4 -129 -169 -277 -385z"/>
 <path d="M2038 628 c-13 -19 -14 -28 -4 -46 12 -23 12 -23 30 -3 16 17 16 22 4 46 l-15 27 -15 -24z"/>
 <path d="M2010 486 c-176 -255 -204 -299 -193 -303 7 -3 29 -16 50 -30 73 -50 234 -133 257 -133 13 0 48 15 79 33 l55 33 -105 225 c-58 123 -106 225 -106 225 -1 1 -18 -21 -37 -50z"/>
 </g>

</svg>
