<svg xmlns="http://www.w3.org/2000/svg" xmlns:xlink="http://www.w3.org/1999/xlink" xml:space="preserve" version="1.1" style="shape-rendering:geometricPrecision;text-rendering:geometricPrecision;image-rendering:optimizeQuality;" viewBox="0 0 416.96 521.1999999999999" x="0px" y="0px" fill-rule="evenodd" clip-rule="evenodd"><defs><style type="text/css">

    .fil0 {fill:white;fill-rule:nonzero}

  </style></defs><g><path class="fil0" d="M48.36 48.36c64.47,-64.48 168.99,-64.48 233.46,0 57.34,57.33 63.65,146.54 18.9,210.88l109.95 102.42c8.52,7.94 8.23,21.7 0,29.92l-19.09 19.09c-8.22,8.23 -21.98,8.52 -29.92,0l-102.42 -109.95c-64.37,44.78 -153.52,38.47 -210.88,-18.9 -64.48,-64.48 -64.48,-169 0,-233.46zm23.94 23.94c-51.26,51.26 -51.26,134.33 0,185.59 51.3,51.3 134.29,51.29 185.59,0 51.26,-51.27 51.27,-134.32 0,-185.59 -51.26,-51.26 -134.33,-51.26 -185.59,0z"/><path class="fil0" d="M101.23 101.23c-4.95,4.96 -13,4.96 -17.96,0 -4.95,-4.95 -4.95,-13 0,-17.96 45.19,-45.18 118.46,-45.18 163.64,0 4.96,4.96 4.96,13.01 0,17.96 -4.96,4.96 -13,4.96 -17.96,0 -35.27,-35.27 -92.45,-35.27 -127.72,0z"/></g><text x="0" y="431.96" fill="#000000" font-size="5px" font-weight="bold" font-family="'Helvetica Neue', Helvetica, Arial-Unicode, Arial, Sans-serif">Created by iejank</text><text x="0" y="436.96" fill="#000000" font-size="5px" font-weight="bold" font-family="'Helvetica Neue', Helvetica, Arial-Unicode, Arial, Sans-serif">from the Noun Project</text></svg>
